<?xml version="1.0" encoding="UTF-8"?> <!-- Generator: Adobe Illustrator 23.0.1, SVG Export Plug-In . SVG Version: 6.00 Build 0) --> <svg xmlns="http://www.w3.org/2000/svg" xmlns:xlink="http://www.w3.org/1999/xlink" version="1.1" id="Layer_1" x="0px" y="0px" viewBox="0 0 612 792" style="enable-background:new 0 0 612 792;" xml:space="preserve"> <style type="text/css"> .st0{fill:#E76324;} .st1{fill:#231F20;stroke:#000000;stroke-linecap:round;stroke-linejoin:round;stroke-miterlimit:10;} </style> <path class="st0" d="M485.4,454.2l13.9,2.9l6.9,1.5l6.9,1.7l6.6,2.1l6.6,2.1l6.6,2.5l6.4,2.9l6.4,3.1l6,3.6l5.9,3.9l5.6,4.3l5.3,4.6 l5,4.9l9.7,10.4l7.6-11.5l3.6-5.9l3.5-5.9l3.4-5.9l2.9-6l5.9-12.3l-13-7.3l-6.6-3.5l-6.6-3.1l-6.9-2.9l-7-2.7l-7.1-2.1l-7.3-1.8 l-7.3-1.4l-7.3-1.1l-7.6-0.6l-7.3-0.1h-7.6l-7.6,0.4l-14.8,1.4l11.5-7.1l5.9-3.5l6-2.9l6.2-2.7l6.3-2.1l6.6-1.5l6.6-1.1l6.9-0.6 l6.9-0.4l6.9,0.1l6.6,0.4l6.9,0.6l6.6,0.8l13.3,1.8l-7.6-46.3l-13.9,0.4l-7,0.4l-7,0.8l-6.9,1l-7,1.4l-6.9,1.5l-6.6,2.1l-6.6,2.4 l-6.4,2.8l-6.3,3.4l-5.9,3.6l-5.9,3.9l-5.9,4.1l-11.3,8.4"></path> <path class="st0" d="M495.1,375.4l-8.5,5l-4.9,2.4l-5.2,2.2l-5.5,2.4l-5.6,2.2l-11.9,4.1l-13,3.9l-13.7,3.8l-14.7,3.4l-15.1,2.9 l-15.8,2.7l-16.4,2.4l-17.1,2.1l-17.4,1.7l-17.9,1.3l-18.1,1l-18.1,0.6l-18.2,0.1l-18.1-0.1l-18.2-0.6l-18.1-1l-17.6-1.3l-17.6-1.7 l-16.9-2.1l-16.4-2.4l-15.8-2.7l-15.4-2.9l-14.6-3.4l-13.7-3.8l-13-3.9l-11.9-4.1l-5.6-2.2l-5.5-2.4l-5.5-2.2l-4.9-2.4l-4.6-2.7 l-4.5-2.7v-0.4C14.6,476.2,36.8,576.8,82,652s108.8,117.9,175.7,117.9S388.3,727,433.4,652C478.3,577.1,500.7,476.7,495.1,375.4z M219.3,565.2l-9.9,5.3l-10.4,4.6l-5.3,1.8l-5.6,1.4l-5.6,1l-5.6,0.8h-5.7l-5.6-0.1l-5.7-0.8l-5.6-1l-5.7-1.4l-5.6-2.2l-5.3-2.2 l-5.3-2.4l-4.8-2.9l-4.6-3.2l-4.6-3.4l-4.2-3.8l-7.3-8.5l-6.6-8.7l-5.7-9.7l-5.3-10.4l-4.8-10.6l18.8,4.3l18.5,4.8l19.2,5.3 l17.8,6.3l17.8,7l17.6,7.3l35.3,15.8L219.3,565.2z M431.8,519.4l-5.3,10.4l-5.7,9.7l-6.6,8.7l-7.3,8.5l-4.2,3.8l-4.6,3.4l-4.6,3.2 l-4.8,2.9l-5.3,2.4l-5.3,2.2l-5.6,2.2l-5.7,1.4l-5.6,1l-5.7,0.8l-5.6,0.1h-5.7l-5.6-0.8l-5.6-1l-5.6-1.4l-5.3-1.8l-10.4-4.6 l-9.9-5.3l-9.9-5.6l35.3-15.8l17.6-7.3l17.8-7l17.8-6.3l18.6-5.3l18.5-4.8l18.8-4.3L431.8,519.4z"></path> <path class="st1" d="M20.6,425.8l6.9,3.6l7.8,3.4l8.4,3.1l9,2.9l9.4,2.9l9.7,2.9l10.1,2.5l10.5,2.2l-11.5-7.8L70,433.7l-10.2-8.3 l-4.8-4.2l-4.8-3.9l-4.3-4.2l-4.3-4.2l-7.8-7.8l-3.5-3.9l-3.4-4.2l-3.1-4.2l-2.9-3.9l8.5,4.2l9.4,4.2l9.9,3.9l10.6,3.8l11.1,3.5 l11.5,3.4l11.9,3.4l12.5,2.9l1,17.8l1.3,18.1l2,18.6l2.5,18.5l-7.8-3.4l-7.4-3.4l-7.3-3.5l-7-3.8l-6.6-3.8l-6.6-3.8l-6.4-3.8l-6-3.8 l-5.6-3.9l-5.6-3.8l-4.9-3.9l-4.8-3.9l-4.6-4.2l-4.3-4.2l-3.9-4.2L20.6,425.8"></path> <path class="st1" d="M494.9,425.8l-3.4,4.1l-3.9,4.2l-4.3,4.2l-4.6,4.2l-4.8,3.9l-4.9,3.9l-5.6,3.8l-5.6,3.9l-6,3.8l-6.4,3.8 l-6.6,3.8l-6.6,3.8l-7,3.8l-7.3,3.5l-7.4,3.4l-7.8,3.4l2.5-18.5l2-18.6l1.3-18.1l1-17.8l12.5-2.9l11.9-3.4l11.5-3.4l11.1-3.5 l10.6-3.8l9.9-3.9l9.4-4.2l8.5-4.2l-2.9,3.9l-3.1,4.2l-3.4,4.2l-3.5,3.9l-7.8,7.8l-4.3,4.2l-4.3,4.2l-4.8,3.9l-4.8,4.2l-10.2,8.3 l-10.9,7.8l-11.5,7.8l10.5-2.2l10.1-2.5l9.7-2.9l9.4-2.9l9-2.9l8.4-3.1l7.8-3.4L494.9,425.8"></path> <path class="st0" d="M364.5,80.5l-30.9,134.1l-0.1-0.1c-0.6,2.8-3.2,4.5-6,4.1c-2.8-0.6-4.6-2.9-4.3-5.7v0.1l16.2-142.8V70 c0.4-3.5-1.5-6.9-4.6-8.1V62c-10.6-4.6-21.6-8.4-32.8-11.3l0,0c-4.5-1.1-7.6-5-7.6-9.7l0.1,0.1V30.9l-0.1-0.1c0-5.5-4.5-9.8-9.8-9.8 h0.1h-27.6h-27.6h-0.1c-5.5,0-9.8,4.5-9.8,9.8l0.1,0.1v10.2V41c0,4.6-3.2,8.5-7.6,9.7H212c-11.2,2.9-22.1,6.9-32.8,11.3v-0.1 c-3.2,1.3-5.2,4.6-4.6,8.1l0.1,0.1l16.4,142.8l-0.1-0.1c0.4,2.8-1.7,5.5-4.3,5.7c-2.8,0.6-5.5-1.3-6-4.1l0.1,0.1l-30.6-134v-0.4 c-0.1-0.7-0.6-1.1-1.3-1.5c-0.6-0.1-1.3-0.1-1.8,0.1v0.1C80.4,121.2,39.2,194.1,37.8,273.1l0,0c0,3.5-2.1,6.7-5,8.4l0,0 c-38.6,21.7-34.2,48.6,11.5,70.8c45.8,22.3,126.4,37.2,213.5,39.2l0,0c87.1-2.1,167.7-16.8,213.5-39.2c45.8-22.3,50-49.1,11.5-70.8 l0,0c-2.9-1.7-5-4.9-5-8.4l0,0C475.9,194,435,121.2,368.3,78.8l0.1-0.1c-0.6-0.4-1.3-0.4-1.8-0.1c-0.6,0.1-1.1,0.7-1.3,1.5"></path> <g> <polygon class="st1" points="397.7,444 397.5,444 398.1,444.4 "></polygon> <path class="st1" d="M118.6,444.4l0.1-0.1c0-0.1-0.1-0.1-0.1-0.3V444.4z"></path> <path class="st1" d="M357.6,216.5c0.1,0,0.1,0.1,0.3,0.1l0.1-0.1H357.6z"></path> <path class="st1" d="M229.7,510.3V509c-0.1,0-0.3,0-0.4,0L229.7,510.3z"></path> <path class="st1" d="M426.2,321.9c0,0.1,0,0.3,0,0.4h1.3L426.2,321.9z"></path> <path class="st1" d="M427.5,375.8h-1.3c3.4-17.6,3.4-35.7,0-53.5l-33.6-0.4v-0.4c-3.4-15-9.8-30-18.8-43l0.4,0.4l23.8-24.4h-0.4 c-10.6-14.4-24.1-27.4-39.8-37.9l-24.1,22.5l-1.3-0.4c-14.4-9-29-14.4-44.7-17.6L286,189l-0.4-0.4c-18.8-3.2-37.9-3.2-56.5,0 l0.4,0.4l-0.4,32.3l-0.4-0.4c-15.7,3.2-31.5,9.4-45.1,17.8l0.4,0.4l-25.5-22.7c-15.3,10.9-29,23.1-40,38.1l23.8,24.4l-0.4-0.4 c-9,13-15.3,28-18.8,43l0.4,0.4l-34,0.4l-0.4-0.4c-3.4,17.8-3.4,36,0,53.9h0.4l33.7,1.7c3.4,14.8,9.8,29.7,18.6,42.6l0.4,1.3 l-23.7,23c10.6,14.4,24.1,27.4,39.9,37.8v0.4l25.5-22.7l-0.4-0.4c13.6,8.5,29.4,14.6,45.1,17.8h0.4l0.4,31.9 c18.6,3.2,37.7,3.1,56.1,0l0.4,1.3l1.7-33.2h-0.4c15.7-3.2,31.5-9.4,45.1-17.8l1.3,0.4l24.2,22.7l-0.4-0.4 c15.3-10.9,29-23.1,40-38.1L374,421.4l-0.4-1.3c9-13,15.3-28,18.8-43v0.4L427.5,375.8z M257.7,419.2c-41.9,0-75.7-32.2-75.7-71.9 s33.9-71.9,75.7-71.9s75.7,32.2,75.7,71.9C333.4,387.7,299.5,419.9,257.7,419.2z"></path> </g> <path class="st1" d="M341.5,669.6c2.1-3.9,2.2-8.4,0.7-12.5c-1.7-4.1-4.9-7.3-9-8.5l0.1,0.1l-17.1-6.2l-17.4-6l-8.5-2.2l-8.7-2.2 l-9.1-1.3l-9.1-0.7h-9.1l-9.2,1l-9.5,1.5l-9.2,1.7l-18.8,4.1l-9.2,1.8l-9.1,1.7l-8.7,1.3l-8.5,0.6H168l-3.9-0.1l-4.1-0.6l-3.9-1 l-3.8-1l-3.8-1.5l-3.8-1.7l-3.4-1.8l-3.4-2.2l-3.2-2.4l-6.3-5.5l-6.2-6.4l-6-6.9l-5.6-7.8l-5.5-8l-5.5-8.7l-5.2-8.7l-10.2-18.2 l8,12.3l8,11.5l4.1,5.6l4.1,5.5l4.5,4.9l4.5,4.6l4.6,4.1l4.6,3.8l4.9,3.2l5.2,2.4l5.5,2.2l5.6,1.3l5.6,1l6,0.6h6.2l6.2-0.1l6.3-0.7 l6.3-1l13.4-2.2l13.7-2.7l14-2.7l14.1-2.2l7-1l7.3-0.6l7-0.1h7l7.3,0.6l7,0.6l14.1,2.1l14.1,2.2l13.7,2.4l13.4,2.2l13,1.5l6.2,0.1 h6.2l6.2-0.1l5.6-0.7l5.6-1l5.6-1.7l5.2-2.2l5.2-2.7l4.9-3.2l4.6-3.8l8.7-8.7l4.1-5.2l4.1-5.2l8-11.2l7.8-12.3l7.6-12.3l-2.4,10.9 l-3.2,10.8l-3.4,10.4l-3.8,10.2l-4.1,10.1l-4.1,10.1l-4.5,9.5l-4.5,9.2l-4.5,9.2l-4.6,8.7l-5.2,8.4l-5.6,8l-6.2,7.8l-6.2,7.3l-6.4,7 l-6.4,6.9l-6.9,6.2l-6.9,6.2l-6.9,5.5l-6.9,5.5l-6.4,4.9l-6.9,4.5l-6.9,3.9l-7,3.8l-7,3.4l-7,2.9l-7,2.4l-7,2.1l-7.3,1.7l-7,1.5 l-7.3,1l-7.3,0.6l6.3-2.9l6.2-2.9l6-3.4l6-3.9l5.6-3.9l5.6-4.5l5.5-4.6l10.2-10.2l4.9-5.6l4.6-6l4.5-6.2l4.5-6.4l4.5-6.9l4.1-7 l4.1-7.3"></path> </svg> 