<svg version="1.1" id="Layer_1" xmlns="http://www.w3.org/2000/svg" xmlns:xlink="http://www.w3.org/1999/xlink" x="0px" y="0px"
	 viewBox="0 0 320 320" style="enable-background:new 0 0 320 320;" shape-rendering="geometricPrecision" overflow="hidden" xml:space="preserve">
	<rect x="0" y="0" width="320" height="320" fill="#3f3f3f" />
	<style type="text/css">
		.st0 {
			fill: #e6e6fa;
			stroke: none;
			fill-rule: evenodd;
		}
	</style>
	<g>
		<path class="st0" d="M29.01,151.1c0.23,4.36,0.3,8.75,0.74,13.09c0.44,4.4,1.11,8.78,1.92,13.12
			c3.41,18.35,10.36,35.27,20.35,51.04c5.17,8.17,11.08,15.75,17.76,22.63c5.37,5.54,11.46,10.47,17.62,15.15
			c9.2,6.99,19.65,11.95,30.25,16.35c11.87,4.92,24.28,7.81,37.24,8.44c12.42,0.61,24.74,0.36,36.95-2.01
			c10.34-2.01,20.33-5.07,29.79-9.87c9.05-4.59,18.01-9.14,25.92-15.72c7.37-6.13,14.19-12.74,20.54-19.87
			c2.15-2.42,4.47-4.76,6.18-7.47c4.29-6.81,8.55-13.66,12.32-20.76c5.1-9.61,8.8-19.73,11.34-30.4
			c1.56-6.54-5.98-13.77-12.13-12.42c-5.96,1.31-12.01,2.29-18.08,2.98c-10.67,1.22-21.35,0.67-31.9-1.29
			c-7.38-1.37-14.53-3.49-21.49-6.49c-12.41-5.34-23.9-12.04-33.72-21.37c-8.94-8.49-16.84-17.81-22.95-28.64
			c-5.29-9.38-9.85-19.06-12.27-29.54c-1.85-8.05-3.32-16.26-4.02-24.48c-1.03-11.99,1.02-23.83,3.06-35.64
			c0.43-2.49,1.68-5.29-0.39-7.7c-1.26-1.47-2.56-2.97-4.09-4.15c-2.18-1.68-4.67-2.39-7.51-1.66c-10.21,2.63-20.01,6.2-29.21,11.5
			c-8.75,5.04-17.56,9.95-24.81,17.11c-5.11,5.04-10.45,9.89-15.12,15.31c-4.57,5.3-8.66,11.05-12.56,16.87
			c-6.4,9.55-10.89,20.04-14.52,30.94C31.36,120.76,29.13,135.74,29.01,151.1z
			M119.92,41.24c0.29,5.77,0.58,11.4,0.87,17.03c0.65,12.57,0.82,25.24,4.93,37.3c2.8,8.2,6,16.29,9.55,24.19
			c5.2,11.55,12.56,21.7,20.74,31.38c5.33,6.31,11.61,11.43,17.72,16.84c6.64,5.88,14.38,9.95,22,14.28
			c10.15,5.76,20.98,9.65,32.32,12.1c4.71,1.02,9.55,1.56,14.36,1.88c9.69,0.65,19.40,1,29.79,1.5c-1.74,3.56-3.14,6.83-4.89,9.89
			c-4.97,8.7-10.05,17.35-17.53,24.25c-5.63,5.19-11.05,10.63-16.86,15.61c-9.25,7.94-20.44,12.25-31.67,16.55
			c-6.1,2.33-12.32,3.95-18.73,4.65c-6.19,0.68-12.45,1.05-18.67,0.96c-9.6-0.14-19.3-0.6-28.44-3.76
			c-11.74-4.06-23.54-8.26-33.61-15.8c-6.38-4.78-12.78-9.72-18.24-15.48c-13.21-13.92-22.71-30.16-28.31-48.63
			c-4.69-15.48-5.28-31.28-4.21-47.26c1.17-17.35,6.35-33.45,15.21-48.33c3.17-5.32,6.89-10.3,10.38-15.42
			c4.28-6.28,10.03-11.11,15.56-16.23c7.82-7.23,17.16-11.89,26.39-16.81C118.94,41.75,119.29,41.57,119.92,41.24z
		"/>
	</g>
</svg>