<?xml version="1.0" encoding="utf-8"?>
<!-- Generator: Adobe Illustrator 23.0.1, SVG Export Plug-In . SVG Version: 6.00 Build 0)  -->
<svg version="1.1" id="Layer_1" xmlns="http://www.w3.org/2000/svg" xmlns:xlink="http://www.w3.org/1999/xlink" x="0px" y="0px"
	 viewBox="0 0 320 320" style="enable-background:new 0 0 320 320;" xml:space="preserve">
<style type="text/css">
	.st0{fill:#e6e6fa;}
</style>
<path class="st0" d="M0.18,0.54c106.67,0,213.33,0,320,0c0,107.91,0,215.83,0,323.74c-106.67,0-213.33,0-320,0
	C0.18,216.37,0.18,108.45,0.18,0.54z M235.12,160.86c1.9-39.68-34.09-75.69-74.09-75.67c-40.16,0.02-75.1,34.27-75.69,75.41
	c-0.55,38.39,33.84,76.44,75.04,76.52C201.18,237.2,237.33,199,235.12,160.86z M53.18,61.72c0.71,1.56,1.14,3.33,2.17,4.62
	c2.6,3.25,5.33,6.41,8.26,9.36c5.63,5.68,11.4,11.22,17.18,16.74c2.93,2.81,8.29,2.72,11.09-0.02c3.37-3.31,3.82-8.47,0.71-11.71
	c-7.86-8.2-15.83-16.29-23.81-24.37c-1.23-1.25-2.64-2.81-4.2-3.14C58.03,51.8,53.94,55.79,53.18,61.72z M225.59,85.57
	c0.65,5.58,3.9,9.07,9.05,8.77c1.93-0.11,4.28-0.93,5.62-2.26c8.23-8.1,16.28-16.39,24.28-24.71c3.65-3.79,3.5-8.53-0.08-12.04
	c-3.33-3.27-8.01-3.29-11.58,0.26c-8.19,8.14-16.32,16.35-24.33,24.67C227.19,81.67,226.56,83.78,225.59,85.57z M168.87,284.72
	c0-5.87,0.12-11.75-0.07-17.62c-0.06-1.85-0.57-3.95-1.59-5.44c-2.17-3.19-5.66-4.04-9.44-2.9c-3.37,1.02-5.59,3.56-5.65,7.55
	c-0.16,11.92-0.17,23.85,0.08,35.77c0.04,1.85,1.42,3.95,2.75,5.45c2.28,2.57,5.47,2.99,8.54,1.69c3.25-1.38,5.54-3.63,5.42-7.67
	C168.75,295.93,168.87,290.32,168.87,284.72z M95.12,236.42c-0.5-4.24-2.01-6.72-5.61-8.11c-3.32-1.29-6.41-0.9-9.05,1.74
	c-1.38,1.38-2.88,2.65-4.25,4.04c-6.87,6.95-13.83,13.83-20.54,20.95c-3.19,3.38-2.7,7.86,0.64,11.14c3.52,3.46,8.16,3.36,12.2-0.6
	c8.18-8.03,16.29-16.15,24.29-24.37C93.97,240.01,94.36,238.04,95.12,236.42z M168.35,37.33c0.01,0,0.01,0,0.02,0
	c0-6.03,0.1-12.07-0.03-18.1c-0.09-4.21-3.49-7.28-7.76-7.35c-4.6-0.07-8.41,2.78-8.47,7.02c-0.18,12.44-0.16,24.88-0.02,37.32
	c0.05,4,3.89,6.92,8.33,6.87c4.67-0.06,7.83-2.79,7.9-7.12C168.42,49.75,168.35,43.54,168.35,37.33z M283.12,152.38
	c-5.95,0-11.91-0.06-17.86,0.02c-4.05,0.06-7.04,2.45-7.99,6.15c-0.98,3.8,0.34,7.84,3.63,9.38c1.91,0.89,4.26,1.1,6.42,1.13
	c10.84,0.15,21.68,0.14,32.51,0.18c4.45,0.01,7.97-3.73,7.98-8.43c0.01-5.02-3.15-8.4-7.9-8.41
	C294.31,152.37,288.72,152.38,283.12,152.38z M258.32,269.08c1.74-0.57,3.08-0.77,4.18-1.41c4.74-2.74,7.32-8.19,1.19-14.35
	c-7.77-7.81-15.64-15.52-23.37-23.36c-1.88-1.9-3.96-2.55-6.48-2.23c-3.47,0.43-5.94,2.2-7.11,5.56c-0.91,2.62-1.2,5.36,0.9,7.49
	c8.47,8.61,17,17.16,25.65,25.59C254.62,267.68,256.7,268.24,258.32,269.08z M38.92,168.74c0,0.16,0,0.33,0,0.49
	c5.69,0,11.38,0.07,17.07-0.02c3.86-0.06,6.97-2.7,7.62-6.19c0.8-4.28-0.81-8.34-4.37-9.56c-2.36-0.82-5.03-0.98-7.57-1.02
	c-7.73-0.12-15.47-0.09-23.21-0.02c-3.1,0.03-6.22,0.12-9.29,0.5c-3.63,0.45-6.04,3.76-6.06,7.82c-0.02,4.24,2.21,7.74,5.86,7.92
	C25.6,168.97,32.27,168.74,38.92,168.74z"/>
<path d="M235.12,160.86c2.21,38.14-33.94,76.34-74.74,76.26c-41.2-0.08-75.59-38.13-75.04-76.52c0.59-41.15,35.52-75.39,75.69-75.41
	C201.04,85.17,237.02,121.18,235.12,160.86z M103.27,160.78c0,3.65-0.47,7.37,0.09,10.93c1.94,12.36,8.13,22.64,16.83,31.35
	c14.88,14.89,33.4,18.04,53.21,14.78c9.92-1.63,18.63-6.81,25.99-13.81c10.59-10.08,17.66-22.07,18.08-37.01
	c0.2-6.96,0.14-14.15-1.36-20.9c-2.51-11.31-8.82-20.76-17.34-28.69c-13.15-12.25-29.04-16.31-46.32-14.17
	c-14.55,1.8-26.78,8.65-36.1,20.43C107.71,134.63,101.92,146.43,103.27,160.78z"/>
<path d="M53.18,61.72c0.76-5.92,4.84-9.92,11.39-8.52c1.56,0.33,2.97,1.9,4.2,3.14c7.98,8.08,15.95,16.18,23.81,24.37
	c3.11,3.24,2.67,8.4-0.71,11.71c-2.8,2.74-8.16,2.83-11.09,0.02c-5.78-5.53-11.55-11.07-17.18-16.74c-2.93-2.95-5.66-6.12-8.26-9.36
	C54.32,65.05,53.89,63.27,53.18,61.72z"/>
<path d="M225.59,85.57c0.97-1.79,1.6-3.9,2.96-5.31c8.01-8.32,16.13-16.53,24.33-24.67c3.57-3.55,8.25-3.52,11.58-0.26
	c3.58,3.51,3.73,8.25,0.08,12.04c-8,8.33-16.05,16.61-24.28,24.71c-1.34,1.32-3.69,2.15-5.62,2.26
	C229.5,94.63,226.25,91.15,225.59,85.57z"/>
<path d="M168.87,284.72c0,5.61-0.12,11.22,0.04,16.82c0.11,4.04-2.17,6.3-5.42,7.67c-3.08,1.3-6.27,0.88-8.54-1.69
	c-1.32-1.49-2.71-3.59-2.75-5.45c-0.25-11.92-0.23-23.85-0.08-35.77c0.05-3.99,2.28-6.53,5.65-7.55c3.78-1.14,7.27-0.29,9.44,2.9
	c1.02,1.5,1.53,3.6,1.59,5.44C168.99,272.97,168.87,278.84,168.87,284.72z"/>
<path d="M95.12,236.42c-0.76,1.62-1.15,3.59-2.32,4.8c-8,8.22-16.1,16.33-24.29,24.37c-4.03,3.96-8.68,4.06-12.2,0.6
	c-3.33-3.28-3.82-7.76-0.64-11.14c6.7-7.12,13.66-13.99,20.54-20.95c1.37-1.39,2.87-2.66,4.25-4.04c2.64-2.65,5.73-3.03,9.05-1.74
	C93.11,229.7,94.62,232.17,95.12,236.42z"/>
<path d="M168.35,37.33c0,6.21,0.08,12.43-0.03,18.64c-0.07,4.32-3.23,7.06-7.9,7.12c-4.44,0.05-8.29-2.86-8.33-6.87
	c-0.14-12.44-0.16-24.88,0.02-37.32c0.06-4.24,3.87-7.09,8.47-7.02c4.27,0.07,7.67,3.13,7.76,7.35c0.13,6.03,0.03,12.07,0.03,18.1
	C168.36,37.33,168.35,37.33,168.35,37.33z"/>
<path d="M283.12,152.38c5.6,0,11.2-0.02,16.8,0c4.75,0.02,7.91,3.4,7.9,8.41c-0.01,4.7-3.53,8.45-7.98,8.43
	c-10.84-0.03-21.68-0.03-32.51-0.18c-2.16-0.03-4.51-0.24-6.42-1.13c-3.29-1.54-4.61-5.58-3.63-9.38c0.95-3.69,3.94-6.09,7.99-6.15
	C271.21,152.32,277.16,152.38,283.12,152.38z"/>
<path d="M258.32,269.08c-1.62-0.84-3.7-1.4-5.04-2.72c-8.65-8.43-17.17-16.99-25.65-25.59c-2.1-2.14-1.81-4.87-0.9-7.49
	c1.16-3.35,3.64-5.12,7.11-5.56c2.52-0.32,4.61,0.33,6.48,2.23c7.73,7.84,15.61,15.55,23.37,23.36c6.12,6.16,3.55,11.61-1.19,14.35
	C261.4,268.31,260.06,268.52,258.32,269.08z"/>
<path d="M38.92,168.74c-6.65,0-13.31,0.23-19.95-0.09c-3.64-0.18-5.88-3.68-5.86-7.92c0.02-4.06,2.43-7.37,6.06-7.82
	c3.07-0.38,6.19-0.47,9.29-0.5c7.74-0.07,15.47-0.1,23.21,0.02c2.54,0.04,5.21,0.21,7.57,1.02c3.55,1.23,5.16,5.28,4.37,9.56
	c-0.65,3.49-3.75,6.13-7.62,6.19c-5.69,0.09-11.38,0.02-17.07,0.02C38.92,169.06,38.92,168.9,38.92,168.74z"/>
<path class="st0" d="M103.27,160.78c-1.34-14.36,4.44-26.16,13.08-37.09c9.31-11.78,21.55-18.63,36.1-20.43
	c17.27-2.14,33.16,1.92,46.32,14.17c8.52,7.93,14.82,17.38,17.34,28.69c1.5,6.74,1.56,13.93,1.36,20.9
	c-0.43,14.95-7.49,26.93-18.08,37.01c-7.36,7-16.07,12.19-25.99,13.81c-19.80,3.25-38.32,0.11-53.21-14.78
	c-8.7-8.71-14.89-18.99-16.83-31.35C102.8,168.15,103.27,164.43,103.27,160.78z"/>
</svg>
